<?xml version="1.0" encoding="UTF-8"?><svg xmlns="http://www.w3.org/2000/svg" xmlns:xlink="http://www.w3.org/1999/xlink" contentScriptType="text/ecmascript" width="1440pt" zoomAndPan="magnify" contentStyleType="text/css" viewBox="0 0 1440 809.999993" height="809.999993pt" preserveAspectRatio="xMidYMid meet" version="1.2"><defs><g/></defs><g xml:id="surface1" id="surface1"><g style="fill:rgb(100%,0%,0%);fill-opacity:1;"><g transform="translate(102.946489, 516.300052)"><path style="stroke:none;" d="M 82.515625 -169.109375 L 80.15625 -128.859375 C 81.28125 -129.535156 85.785156 -130.039062 93.671875 -130.375 C 101.566406 -130.71875 106.753906 -130.660156 109.234375 -130.203125 L 121.75 -124.453125 C 124.90625 -122.429688 128.625 -118.9375 132.90625 -113.96875 C 135.613281 -108.113281 132.347656 -103.609375 123.109375 -100.453125 C 114.316406 -99.097656 108.679688 -98.421875 106.203125 -98.421875 L 79.484375 -97.0625 L 79.484375 -81.5 C 80.828125 -53.769531 81.5 -37.648438 81.5 -33.140625 C 82.632812 -26.378906 83.203125 -22.320312 83.203125 -20.96875 L 83.203125 -13.53125 C 83.203125 -9.25 82.632812 -6.539062 81.5 -5.40625 C 78.800781 -2.03125 77.113281 -0.226562 76.4375 0 C 67.1875 3.601562 57.378906 1.347656 47.015625 -6.765625 L 41.59375 -13.859375 C 41.59375 -14.765625 40.914062 -18.148438 39.5625 -24.015625 C 39.789062 -24.691406 38.890625 -28.410156 36.859375 -35.171875 C 36.859375 -36.523438 37.140625 -38.21875 37.703125 -40.25 C 38.273438 -42.28125 38.5625 -44.535156 38.5625 -47.015625 C 38.5625 -49.492188 37.992188 -52.082031 36.859375 -54.78125 C 36.859375 -57.71875 36.632812 -60.3125 36.1875 -62.5625 L 36.1875 -65.953125 C 36.632812 -68.429688 36.914062 -71.078125 37.03125 -73.890625 C 37.144531 -76.710938 37.484375 -79.53125 38.046875 -82.34375 C 38.609375 -85.164062 38.664062 -87.816406 38.21875 -90.296875 L 38.21875 -91.3125 C 35.0625 -92.894531 32.75 -93.570312 31.28125 -93.34375 C 29.8125 -93.113281 28.234375 -93.84375 26.546875 -95.53125 C 24.859375 -97.226562 23.898438 -98.863281 23.671875 -100.4375 C 23.453125 -102.019531 25.820312 -105.179688 30.78125 -109.921875 C 31.226562 -110.816406 33.929688 -112.394531 38.890625 -114.65625 L 38.890625 -121.421875 L 40.578125 -140.359375 C 39.898438 -146.441406 39.898438 -151.0625 40.578125 -154.21875 C 41.253906 -157.375 41.367188 -159.96875 40.921875 -162 L 42.953125 -169.4375 C 31.679688 -167.40625 23.5625 -166.957031 18.59375 -168.09375 C 14.3125 -170.113281 12.0625 -173.378906 11.84375 -177.890625 C 11.613281 -178.117188 12.175781 -181.390625 13.53125 -187.703125 C 12.851562 -190.859375 15.554688 -194.804688 21.640625 -199.546875 C 26.597656 -201.796875 31.332031 -203.375 35.84375 -204.28125 C 44.414062 -207.207031 52.082031 -209.125 58.84375 -210.03125 C 72.144531 -212.28125 82.859375 -214.195312 90.984375 -215.78125 L 106.875 -221.515625 C 110.476562 -223.546875 113.015625 -224.445312 114.484375 -224.21875 C 115.953125 -224 118.148438 -224.453125 121.078125 -225.578125 C 121.523438 -226.703125 124.117188 -227.71875 128.859375 -228.625 C 138.546875 -230.425781 144.179688 -229.410156 145.765625 -225.578125 C 147.796875 -225.128906 150.5 -223.550781 153.875 -220.84375 C 154.550781 -220.625 157.144531 -216.226562 161.65625 -207.65625 C 162.332031 -205.851562 161.992188 -203.992188 160.640625 -202.078125 C 159.296875 -200.160156 157.15625 -199.085938 154.21875 -198.859375 L 145.09375 -195.484375 C 142.382812 -195.253906 138.550781 -194.015625 133.59375 -191.765625 C 124.34375 -189.285156 119.15625 -188.046875 118.03125 -188.046875 C 116.90625 -188.046875 115.78125 -187.929688 114.65625 -187.703125 C 111.269531 -187.023438 107.660156 -186.125 103.828125 -185 C 99.992188 -183.875 96.722656 -183.3125 94.015625 -183.3125 C 87.703125 -181.957031 84.207031 -180.378906 83.53125 -178.578125 C 83.3125 -178.117188 83.203125 -177.441406 83.203125 -176.546875 L 82.515625 -172.484375 Z M 82.515625 -169.109375 "/></g></g><g style="fill:rgb(100%,0%,0%);fill-opacity:1;"><g transform="translate(261.902606, 516.300052)"><path style="stroke:none;" d="M 83.53125 -108.21875 C 84.4375 -111.601562 84.328125 -115.890625 83.203125 -121.078125 C 81.617188 -122.429688 79.472656 -123.109375 76.765625 -123.109375 C 73.390625 -123.109375 70.347656 -119.953125 67.640625 -113.640625 C 64.035156 -108.222656 61.332031 -102.25 59.53125 -95.71875 L 59.1875 -95.71875 C 56.707031 -86.238281 55.46875 -81.164062 55.46875 -80.5 C 59.070312 -79.59375 62 -79.195312 64.25 -79.3125 C 66.507812 -79.425781 69.101562 -80.609375 72.03125 -82.859375 C 77.21875 -87.816406 81.050781 -96.269531 83.53125 -108.21875 Z M 82.515625 -59.53125 L 70.015625 -58.515625 C 63.023438 -58.515625 57.5 -59.1875 53.4375 -60.53125 L 54.453125 -54.109375 C 55.128906 -35.398438 60.316406 -23.113281 70.015625 -17.25 C 72.710938 -16.125 74.960938 -15.5625 76.765625 -15.5625 C 78.578125 -15.5625 80.945312 -16.460938 83.875 -18.265625 C 84.78125 -19.160156 85.566406 -20.398438 86.234375 -21.984375 C 86.460938 -24.015625 87.59375 -24.914062 89.625 -24.6875 C 98.863281 -36.414062 105.851562 -41.039062 110.59375 -38.5625 C 115.320312 -35.40625 117.6875 -32.921875 117.6875 -31.109375 C 117.6875 -30.210938 117.125 -29.203125 116 -28.078125 L 116 -26.046875 C 116 -23.785156 114.585938 -19.722656 111.765625 -13.859375 C 108.953125 -8.003906 105.96875 -3.046875 102.8125 1.015625 C 101.238281 4.398438 99.207031 6.765625 96.71875 8.109375 C 89.507812 12.617188 81.847656 14.425781 73.734375 13.53125 C 71.921875 13.300781 70.679688 12.847656 70.015625 12.171875 C 68.203125 11.722656 66.847656 11.613281 65.953125 11.84375 L 63.25 11.5 C 61.21875 11.5 59.523438 11.046875 58.171875 10.140625 C 55.910156 8.785156 54.332031 8.109375 53.4375 8.109375 C 47.570312 5.859375 44.019531 4.171875 42.78125 3.046875 C 41.539062 1.921875 40.46875 1.128906 39.5625 0.671875 C 38.664062 0.222656 36.523438 -2.140625 33.140625 -6.421875 C 30.210938 -8.898438 28.523438 -10.476562 28.078125 -11.15625 C 26.722656 -13.1875 25.535156 -14.648438 24.515625 -15.546875 C 23.503906 -16.453125 22.882812 -18.484375 22.65625 -21.640625 C 21.757812 -22.773438 21.3125 -24.242188 21.3125 -26.046875 L 19.953125 -28.75 C 19.953125 -30.320312 19.273438 -31.5625 17.921875 -32.46875 C 16.566406 -33.820312 15.890625 -35.515625 15.890625 -37.546875 L 15.890625 -40.25 C 14.992188 -40.695312 14.769531 -42.046875 15.21875 -44.296875 L 15.21875 -53.09375 L 14.875 -56.140625 L 14.875 -58.515625 C 14.65625 -59.410156 14.882812 -61.328125 15.5625 -64.265625 L 15.21875 -67.296875 C 15.445312 -67.523438 15.785156 -69.332031 16.234375 -72.71875 C 17.140625 -77.445312 18.15625 -80.375 19.28125 -81.5 L 19.28125 -84.546875 C 19.5 -85.222656 19.609375 -86.125 19.609375 -87.25 C 19.609375 -88.382812 19.890625 -89.625 20.453125 -90.96875 C 21.023438 -92.320312 22.773438 -97.398438 25.703125 -106.203125 L 31.109375 -118.03125 C 32.691406 -121.414062 35.175781 -125.132812 38.5625 -129.1875 C 38.78125 -130.320312 39.679688 -132.351562 41.265625 -135.28125 L 45.65625 -139.34375 C 47.007812 -141.375 49.039062 -142.835938 51.75 -143.734375 C 54.90625 -145.316406 57.269531 -146.109375 58.84375 -146.109375 L 68.3125 -147.453125 C 69.445312 -147.234375 70.238281 -147.125 70.6875 -147.125 L 75.078125 -147.125 C 80.035156 -146.664062 84.09375 -145.648438 87.25 -144.078125 C 94.019531 -142.046875 98.984375 -139.453125 102.140625 -136.296875 C 109.128906 -128.398438 112.625 -120.84375 112.625 -113.625 C 112.625 -106.414062 111.492188 -100.21875 109.234375 -95.03125 C 103.597656 -82.175781 99.539062 -74.0625 97.0625 -70.6875 C 93.007812 -63.25 88.160156 -59.53125 82.515625 -59.53125 Z M 82.515625 -59.53125 "/></g></g><g style="fill:rgb(100%,0%,0%);fill-opacity:1;"><g transform="translate(390.420297, 516.300052)"><path style="stroke:none;" d="M 38.5625 -119.390625 L 38.890625 -122.421875 C 34.160156 -122.878906 30.835938 -123.273438 28.921875 -123.609375 C 27.003906 -123.953125 23.898438 -124.347656 19.609375 -124.796875 C 15.328125 -125.242188 11.945312 -125.921875 9.46875 -126.828125 C 4.738281 -128.398438 2.035156 -132.507812 1.359375 -139.15625 C 0.679688 -145.8125 2.820312 -149.929688 7.78125 -151.515625 C 12.289062 -152.640625 15.445312 -153.203125 17.25 -153.203125 C 19.050781 -153.203125 22.429688 -153.425781 27.390625 -153.875 C 29.867188 -155.226562 33.253906 -156.019531 37.546875 -156.25 L 42.609375 -157.609375 C 42.609375 -157.378906 43.507812 -157.601562 45.3125 -158.28125 L 47.015625 -165.375 C 47.015625 -168.988281 48.023438 -172.597656 50.046875 -176.203125 C 50.046875 -177.785156 51.515625 -182.179688 54.453125 -189.390625 C 54.453125 -190.296875 56.476562 -196.835938 60.53125 -209.015625 C 61.4375 -210.140625 64.820312 -212.726562 70.6875 -216.78125 C 74.289062 -218.59375 79.363281 -217.351562 85.90625 -213.0625 C 89.507812 -211.488281 91.988281 -209.347656 93.34375 -206.640625 C 91.988281 -205.285156 91.3125 -202.128906 91.3125 -197.171875 C 91.09375 -195.597656 89.515625 -187.253906 86.578125 -172.140625 L 86.578125 -162.671875 C 88.378906 -162.453125 91.363281 -161.890625 95.53125 -160.984375 C 99.707031 -160.078125 104.726562 -159.0625 110.59375 -157.9375 C 121.863281 -155.6875 128.96875 -151.175781 131.90625 -144.40625 C 133.03125 -139.445312 132.800781 -135.953125 131.21875 -133.921875 C 129.644531 -131.898438 125.8125 -130.4375 119.71875 -129.53125 C 114.757812 -129.300781 108.273438 -129.1875 100.265625 -129.1875 C 92.265625 -129.1875 86.347656 -128.625 82.515625 -127.5 C 82.066406 -123.445312 81.84375 -120.289062 81.84375 -118.03125 L 81.5 -112.953125 C 81.5 -111.378906 80.488281 -103.039062 78.46875 -87.9375 C 77.113281 -85.90625 75.984375 -75.421875 75.078125 -56.484375 L 75.078125 -31.796875 C 75.078125 -27.734375 75.414062 -23.898438 76.09375 -20.296875 C 76.320312 -15.335938 76.882812 -11.84375 77.78125 -9.8125 C 77.78125 -7.78125 78.347656 -3.492188 79.484375 3.046875 C 76.773438 9.585938 72.316406 12.859375 66.109375 12.859375 C 59.910156 12.859375 54.445312 10.601562 49.71875 6.09375 L 46 0.671875 C 45.320312 -1.128906 44.8125 -2.367188 44.46875 -3.046875 C 44.132812 -3.722656 43.851562 -4.507812 43.625 -5.40625 C 42.050781 -9.914062 40.8125 -12.734375 39.90625 -13.859375 C 38.550781 -15.671875 37.875 -17.023438 37.875 -17.921875 C 37.875 -18.828125 37.875 -19.957031 37.875 -21.3125 C 37.425781 -25.144531 36.863281 -28.410156 36.1875 -31.109375 C 35.0625 -32.242188 34.5 -36.078125 34.5 -42.609375 C 34.945312 -54.554688 34.945312 -61.4375 34.5 -63.25 C 35.175781 -63.925781 35.285156 -68.207031 34.828125 -76.09375 L 35.84375 -83.53125 C 35.84375 -84.4375 36.296875 -87.820312 37.203125 -93.6875 C 36.753906 -94.582031 36.640625 -97.003906 36.859375 -100.953125 C 37.085938 -104.898438 37.425781 -107.660156 37.875 -109.234375 C 38.332031 -111.941406 38.5625 -115.328125 38.5625 -119.390625 Z M 38.5625 -119.390625 "/></g></g><g style="fill:rgb(100%,0%,0%);fill-opacity:1;"><g transform="translate(508.453669, 516.300052)"><path style="stroke:none;" d="M 24.015625 -112.953125 C 24.015625 -115.890625 25.476562 -118.375 28.40625 -120.40625 C 28.40625 -120.625 28.40625 -120.847656 28.40625 -121.078125 C 28.40625 -122.648438 30.148438 -125.46875 33.640625 -129.53125 C 37.140625 -133.59375 39.113281 -136.070312 39.5625 -136.96875 C 44.53125 -139.90625 47.800781 -141.597656 49.375 -142.046875 C 51.175781 -141.597656 52.414062 -141.375 53.09375 -141.375 L 53.78125 -141.375 C 60.3125 -142.945312 67.804688 -142.71875 76.265625 -140.6875 C 84.722656 -138.664062 90.640625 -135.0625 94.015625 -129.875 C 95.816406 -126.488281 97.625 -121.976562 99.4375 -116.34375 C 102.132812 -108.445312 103.484375 -102.695312 103.484375 -99.09375 C 104.835938 -93.226562 104.953125 -87.816406 103.828125 -82.859375 L 103.484375 -79.484375 C 103.484375 -78.578125 102.921875 -77.671875 101.796875 -76.765625 C 100.671875 -75.867188 99.375 -75.472656 97.90625 -75.578125 C 96.445312 -75.691406 95.148438 -75.128906 94.015625 -73.890625 C 92.890625 -72.648438 90.578125 -72.03125 87.078125 -72.03125 C 83.585938 -72.03125 81.726562 -73.046875 81.5 -75.078125 C 80.832031 -75.304688 79.765625 -76.097656 78.296875 -77.453125 C 76.828125 -78.804688 76.09375 -79.820312 76.09375 -80.5 L 74.40625 -82.859375 C 74.40625 -83.304688 73.953125 -83.984375 73.046875 -84.890625 C 71.023438 -88.953125 70.238281 -92.109375 70.6875 -94.359375 C 71.8125 -100.222656 72.148438 -103.378906 71.703125 -103.828125 C 71.703125 -107.210938 70.570312 -110.59375 68.3125 -113.96875 C 68.09375 -114.195312 67.695312 -114.367188 67.125 -114.484375 C 66.5625 -114.597656 65.832031 -114.765625 64.9375 -114.984375 C 64.488281 -116.566406 64.035156 -117.359375 63.578125 -117.359375 C 62.003906 -116.910156 60.316406 -115.671875 58.515625 -113.640625 C 55.359375 -104.847656 53.441406 -98.984375 52.765625 -96.046875 L 50.734375 -75.421875 L 50.734375 -59.859375 C 51.179688 -51.742188 52.082031 -46.785156 53.4375 -44.984375 C 53.4375 -44.078125 53.882812 -42.5 54.78125 -40.25 C 55.007812 -37.3125 57.378906 -32.125 61.890625 -24.6875 L 63.578125 -22.65625 C 64.703125 -19.5 66.617188 -17.921875 69.328125 -17.921875 C 72.035156 -17.921875 75.867188 -21.078125 80.828125 -27.390625 C 80.609375 -28.066406 82.078125 -30.773438 85.234375 -35.515625 C 88.390625 -39.796875 93.347656 -41.484375 100.109375 -40.578125 C 103.035156 -40.128906 104.5 -38.441406 104.5 -35.515625 C 104.726562 -33.484375 104.050781 -28.410156 102.46875 -20.296875 C 100.21875 -18.035156 99.09375 -15.78125 99.09375 -13.53125 C 97.507812 -9.46875 96.71875 -7.210938 96.71875 -6.765625 C 96.050781 -6.765625 95.378906 -6.425781 94.703125 -5.75 L 93 -2.375 C 92.101562 -2.375 91.539062 -1.921875 91.3125 -1.015625 C 88.832031 1.910156 87.140625 3.375 86.234375 3.375 C 85.566406 4.050781 83.765625 4.390625 80.828125 4.390625 C 76.546875 6.203125 73.390625 7.109375 71.359375 7.109375 L 65.609375 7.4375 L 61.890625 6.09375 L 58.84375 5.75 C 56.132812 4.625 54.046875 4.113281 52.578125 4.21875 C 51.117188 4.332031 50.050781 4.21875 49.375 3.875 C 48.695312 3.539062 47.796875 2.925781 46.671875 2.03125 C 43.960938 -0.226562 42.210938 -1.359375 41.421875 -1.359375 C 40.640625 -1.359375 39.347656 -2.03125 37.546875 -3.375 C 35.734375 -3.832031 34.265625 -4.625 33.140625 -5.75 L 31.796875 -9.125 C 32.242188 -10.707031 32.015625 -11.613281 31.109375 -11.84375 C 28.179688 -11.84375 26.492188 -12.40625 26.046875 -13.53125 L 24.015625 -16.234375 C 24.015625 -18.035156 23.113281 -20.40625 21.3125 -23.34375 L 17.25 -35.515625 C 16.800781 -35.960938 16.800781 -36.75 17.25 -37.875 L 17.25 -43.96875 L 13.1875 -70.34375 L 13.1875 -75.078125 C 15.21875 -82.515625 16.234375 -86.347656 16.234375 -86.578125 C 16.003906 -91.535156 17.128906 -95.929688 19.609375 -99.765625 C 19.609375 -104.054688 21.078125 -108.453125 24.015625 -112.953125 Z M 24.015625 -112.953125 "/></g></g><g style="fill:rgb(100%,0%,0%);fill-opacity:1;"><g transform="translate(630.207265, 516.300052)"><path style="stroke:none;" d="M 56.140625 -131.5625 L 52.421875 -85.5625 L 54.4375 -90.296875 C 55.34375 -92.328125 58.613281 -97.0625 64.25 -104.5 C 64.25 -105.175781 67.742188 -111.148438 74.734375 -122.421875 L 80.484375 -129.1875 L 83.53125 -133.921875 C 87.8125 -137.304688 91.421875 -139 94.359375 -139 C 100.441406 -139.90625 106.976562 -138.101562 113.96875 -133.59375 C 115.550781 -133.363281 117.582031 -131.671875 120.0625 -128.515625 C 123.894531 -125.585938 125.582031 -121.414062 125.125 -116 C 125.125 -115.550781 125.015625 -114.875 124.796875 -113.96875 C 120.503906 -78.800781 118.242188 -54.171875 118.015625 -40.078125 C 117.796875 -25.984375 118.925781 -14.203125 121.40625 -4.734375 C 123.207031 3.160156 120.273438 8.6875 112.609375 11.84375 C 110.585938 13.1875 107.429688 13.410156 103.140625 12.515625 C 99.304688 12.515625 96.429688 12.003906 94.515625 10.984375 C 92.597656 9.972656 90.628906 7.664062 88.609375 4.0625 L 86.90625 -2.703125 C 86.007812 -4.503906 85.5625 -6.984375 85.5625 -10.140625 L 84.203125 -19.953125 C 84.429688 -20.398438 84.546875 -23.332031 84.546875 -28.75 L 84.890625 -37.546875 C 84.210938 -40.703125 84.320312 -46.898438 85.21875 -56.140625 L 85.890625 -70.6875 L 85.890625 -79.140625 C 86.117188 -79.816406 85.445312 -81.394531 83.875 -83.875 C 78.007812 -79.363281 71.46875 -64.257812 64.25 -38.5625 L 55.453125 -11.5 C 51.398438 2.925781 47.003906 10.707031 42.265625 11.84375 L 38.546875 12.515625 C 35.390625 12.515625 31.109375 11.613281 25.703125 9.8125 C 21.410156 5.070312 19.265625 0.335938 19.265625 -4.390625 C 19.722656 -5.296875 19.835938 -6.3125 19.609375 -7.4375 C 18.929688 -10.375 19.15625 -14.429688 20.28125 -19.609375 C 20.0625 -20.285156 19.953125 -21.191406 19.953125 -22.328125 L 20.28125 -27.390625 C 19.832031 -28.515625 19.378906 -31.726562 18.921875 -37.03125 C 18.472656 -42.332031 18.476562 -46.335938 18.9375 -49.046875 C 18.476562 -49.941406 19.15625 -52.984375 20.96875 -58.171875 C 19.15625 -60.878906 18.140625 -63.921875 17.921875 -67.296875 C 17.015625 -76.546875 16.726562 -83.476562 17.0625 -88.09375 C 17.40625 -92.71875 17.578125 -97.0625 17.578125 -101.125 C 17.128906 -105.175781 17.019531 -110.023438 17.25 -115.671875 L 19.609375 -143.0625 L 21.984375 -162.671875 C 21.984375 -164.253906 21.472656 -166.675781 20.453125 -169.9375 C 19.441406 -173.207031 19.160156 -177.097656 19.609375 -181.609375 C 20.054688 -186.117188 20.5625 -188.992188 21.125 -190.234375 C 21.695312 -191.472656 22.546875 -194.800781 23.671875 -200.21875 C 23.671875 -204.726562 24.117188 -208.109375 25.015625 -210.359375 L 27.046875 -216.453125 C 27.273438 -218.023438 30.207031 -220.617188 35.84375 -224.234375 L 39.5625 -224.234375 C 48.351562 -223.554688 54.78125 -222.085938 58.84375 -219.828125 C 60.644531 -218.703125 61.09375 -214.757812 60.1875 -208 C 59.738281 -198.53125 59.398438 -192.664062 59.171875 -190.40625 C 58.953125 -188.15625 58.390625 -178.347656 57.484375 -160.984375 C 56.585938 -143.617188 56.140625 -133.8125 56.140625 -131.5625 Z M 56.140625 -131.5625 "/></g></g><g style="fill:rgb(100%,100%,100%);fill-opacity:1;"><g transform="translate(774.278486, 516.300052)"><path style="stroke:none;" d="M 98.078125 -140.015625 L 103.484375 -151.515625 C 104.617188 -154.671875 105.128906 -157.148438 105.015625 -158.953125 C 104.898438 -160.753906 104.84375 -162.21875 104.84375 -163.34375 C 104.84375 -164.476562 104.726562 -165.890625 104.5 -167.578125 C 104.28125 -169.265625 103.550781 -170.953125 102.3125 -172.640625 C 101.070312 -174.335938 99.828125 -175.46875 98.578125 -176.03125 C 97.335938 -176.59375 95.03125 -177.550781 91.65625 -178.90625 L 84.21875 -179.25 C 77.445312 -180.601562 71.695312 -180.039062 66.96875 -177.5625 C 66.96875 -172.59375 65.726562 -162.21875 63.25 -146.4375 L 61.21875 -123.109375 L 59.53125 -110.9375 C 61.101562 -110.9375 65.160156 -112.175781 71.703125 -114.65625 L 76.4375 -118.703125 C 77.332031 -118.929688 80.148438 -121.414062 84.890625 -126.15625 C 86.015625 -126.601562 87.253906 -127.726562 88.609375 -129.53125 L 91.984375 -133.59375 C 92.660156 -133.363281 93.90625 -134.488281 95.71875 -136.96875 Z M 58.84375 -49.71875 L 59.53125 -41.59375 C 60.425781 -39.570312 60.421875 -36.644531 59.515625 -32.8125 C 58.617188 -28.976562 58.507812 -26.046875 59.1875 -24.015625 C 59.1875 -20.179688 59.300781 -17.925781 59.53125 -17.25 C 61.550781 -17.25 64.644531 -18.148438 68.8125 -19.953125 C 72.988281 -21.753906 75.640625 -22.769531 76.765625 -23 C 77.898438 -23.226562 79.367188 -24.128906 81.171875 -25.703125 C 86.804688 -28.628906 92.664062 -32.007812 98.75 -35.84375 L 106.53125 -42.953125 C 113.070312 -50.835938 117.582031 -56.585938 120.0625 -60.203125 L 122.09375 -66.28125 C 125.019531 -72.59375 122.203125 -78.570312 113.640625 -84.21875 C 111.835938 -86.914062 108.113281 -88.71875 102.46875 -89.625 L 102.140625 -89.625 C 94.242188 -91.875 89.617188 -92.773438 88.265625 -92.328125 L 73.390625 -88.953125 C 70.679688 -87.597656 68.253906 -86.921875 66.109375 -86.921875 C 63.972656 -86.921875 61.664062 -87.9375 59.1875 -89.96875 L 59.53125 -80.5 C 57.945312 -76.207031 57.492188 -72.035156 58.171875 -67.984375 C 59.078125 -63.921875 59.300781 -57.832031 58.84375 -49.71875 Z M 73.734375 10.484375 L 70.6875 10.484375 C 68.425781 10.929688 64.03125 10.59375 57.5 9.46875 C 46 7.664062 36.753906 4.054688 29.765625 -1.359375 C 27.734375 -3.160156 25.421875 -5.582031 22.828125 -8.625 C 20.234375 -11.664062 18.9375 -13.75 18.9375 -14.875 C 18.9375 -16.007812 18.992188 -17.476562 19.109375 -19.28125 C 19.222656 -21.082031 19.050781 -22.882812 18.59375 -24.6875 L 18.59375 -27.390625 C 17.925781 -28.742188 18.039062 -31.164062 18.9375 -34.65625 C 19.84375 -38.15625 20.066406 -41.035156 19.609375 -43.296875 C 19.160156 -46.222656 18.820312 -49.378906 18.59375 -52.765625 C 17.925781 -53.660156 18.265625 -56.140625 19.609375 -60.203125 C 21.421875 -90.640625 22.328125 -107.320312 22.328125 -110.25 L 24.015625 -120.40625 C 22.890625 -127.164062 23.113281 -133.023438 24.6875 -137.984375 L 24.6875 -145.421875 C 24.457031 -148.578125 25.359375 -157.710938 27.390625 -172.828125 C 26.492188 -175.523438 23.453125 -179.019531 18.265625 -183.3125 C 17.140625 -184.4375 16.007812 -186.179688 14.875 -188.546875 C 13.75 -190.910156 14.203125 -194.6875 16.234375 -199.875 C 17.585938 -201.675781 21.535156 -204.609375 28.078125 -208.671875 C 28.523438 -210.023438 34.609375 -212.617188 46.328125 -216.453125 L 52.765625 -219.15625 C 55.921875 -220.28125 62.234375 -220.734375 71.703125 -220.515625 C 76.890625 -219.835938 81.0625 -218.820312 84.21875 -217.46875 C 95.71875 -211.832031 106.3125 -205.40625 116 -198.1875 C 118.9375 -196.832031 120.96875 -195.03125 122.09375 -192.78125 C 126.144531 -190.070312 129.914062 -185.726562 133.40625 -179.75 C 136.90625 -173.78125 138.882812 -170.003906 139.34375 -168.421875 C 140.46875 -161.210938 139.335938 -152.535156 135.953125 -142.390625 C 134.378906 -137.203125 126.941406 -126.378906 113.640625 -109.921875 C 115.890625 -109.242188 119.722656 -107.328125 125.140625 -104.171875 C 125.816406 -103.265625 128.179688 -101.6875 132.234375 -99.4375 C 132.679688 -98.757812 133.300781 -97.96875 134.09375 -97.0625 C 134.882812 -96.164062 135.503906 -95.378906 135.953125 -94.703125 L 138.65625 -93 L 142.046875 -87.9375 L 147.125 -83.53125 C 149.375 -81.28125 151.175781 -78.800781 152.53125 -76.09375 C 155.914062 -72.9375 157.71875 -70.34375 157.9375 -68.3125 L 158.625 -61.890625 C 158.394531 -59.410156 155.007812 -51.296875 148.46875 -37.546875 C 145.988281 -32.578125 142.832031 -28.742188 139 -26.046875 L 133.921875 -19.953125 C 132.578125 -18.148438 130.039062 -15.894531 126.3125 -13.1875 C 122.59375 -10.476562 119.492188 -7.882812 117.015625 -5.40625 C 115.890625 -4.957031 114.140625 -3.941406 111.765625 -2.359375 C 109.398438 -0.785156 105.90625 1.125 101.28125 3.375 C 96.664062 5.632812 93.566406 6.988281 91.984375 7.4375 C 87.484375 8.789062 81.398438 9.804688 73.734375 10.484375 Z M 73.734375 10.484375 "/></g></g><g style="fill:rgb(100%,100%,100%);fill-opacity:1;"><g transform="translate(937.293011, 516.300052)"><path style="stroke:none;" d="M 77.109375 -99.765625 C 75.535156 -108.785156 71.140625 -112.957031 63.921875 -112.28125 C 59.859375 -112.050781 56.363281 -109.347656 53.4375 -104.171875 C 49.375 -96.273438 47.625 -86.066406 48.1875 -73.546875 C 48.757812 -61.035156 49.664062 -52.019531 50.90625 -46.5 C 52.144531 -40.976562 54.34375 -36.1875 57.5 -32.125 C 59.300781 -28.96875 62.003906 -27.503906 65.609375 -27.734375 C 71.921875 -27.734375 76.546875 -33.03125 79.484375 -43.625 L 82.1875 -51.75 C 83.3125 -52.875 83.535156 -54 82.859375 -55.125 C 85.109375 -60.757812 86.347656 -67.410156 86.578125 -75.078125 C 84.328125 -76.660156 82.972656 -78.128906 82.515625 -79.484375 C 81.171875 -83.316406 80.5 -85.90625 80.5 -87.25 C 78.914062 -88.382812 78.007812 -90.53125 77.78125 -93.6875 C 77.5625 -96.84375 77.335938 -98.867188 77.109375 -99.765625 Z M 15.21875 -67.984375 L 16.578125 -85.234375 C 18.148438 -100.785156 22.882812 -114.085938 30.78125 -125.140625 C 38.445312 -134.378906 49.269531 -139.113281 63.25 -139.34375 L 65.265625 -139.34375 C 78.347656 -139.34375 87.820312 -136.523438 93.6875 -130.890625 C 100 -125.921875 104.675781 -120.503906 107.71875 -114.640625 C 110.757812 -108.785156 112.726562 -104.503906 113.625 -101.796875 C 114.53125 -99.085938 115.097656 -95.144531 115.328125 -89.96875 C 115.773438 -80.269531 113.859375 -74.742188 109.578125 -73.390625 C 112.734375 -51.972656 110.816406 -34.953125 103.828125 -22.328125 C 101.578125 -17.140625 98.304688 -11.5 94.015625 -5.40625 C 90.859375 -1.351562 85.222656 0.898438 77.109375 1.359375 C 68.992188 1.359375 61.945312 0.90625 55.96875 0 C 50 -0.90625 43.40625 -3.78125 36.1875 -8.625 C 28.96875 -13.46875 23.894531 -21.414062 20.96875 -32.46875 C 17.8125 -43.0625 15.894531 -54.898438 15.21875 -67.984375 Z M 15.21875 -67.984375 "/></g></g><g style="fill:rgb(100%,100%,100%);fill-opacity:1;"><g transform="translate(1066.825324, 516.300052)"><path style="stroke:none;" d="M 77.109375 -99.765625 C 75.535156 -108.785156 71.140625 -112.957031 63.921875 -112.28125 C 59.859375 -112.050781 56.363281 -109.347656 53.4375 -104.171875 C 49.375 -96.273438 47.625 -86.066406 48.1875 -73.546875 C 48.757812 -61.035156 49.664062 -52.019531 50.90625 -46.5 C 52.144531 -40.976562 54.34375 -36.1875 57.5 -32.125 C 59.300781 -28.96875 62.003906 -27.503906 65.609375 -27.734375 C 71.921875 -27.734375 76.546875 -33.03125 79.484375 -43.625 L 82.1875 -51.75 C 83.3125 -52.875 83.535156 -54 82.859375 -55.125 C 85.109375 -60.757812 86.347656 -67.410156 86.578125 -75.078125 C 84.328125 -76.660156 82.972656 -78.128906 82.515625 -79.484375 C 81.171875 -83.316406 80.5 -85.90625 80.5 -87.25 C 78.914062 -88.382812 78.007812 -90.53125 77.78125 -93.6875 C 77.5625 -96.84375 77.335938 -98.867188 77.109375 -99.765625 Z M 15.21875 -67.984375 L 16.578125 -85.234375 C 18.148438 -100.785156 22.882812 -114.085938 30.78125 -125.140625 C 38.445312 -134.378906 49.269531 -139.113281 63.25 -139.34375 L 65.265625 -139.34375 C 78.347656 -139.34375 87.820312 -136.523438 93.6875 -130.890625 C 100 -125.921875 104.675781 -120.503906 107.71875 -114.640625 C 110.757812 -108.785156 112.726562 -104.503906 113.625 -101.796875 C 114.53125 -99.085938 115.097656 -95.144531 115.328125 -89.96875 C 115.773438 -80.269531 113.859375 -74.742188 109.578125 -73.390625 C 112.734375 -51.972656 110.816406 -34.953125 103.828125 -22.328125 C 101.578125 -17.140625 98.304688 -11.5 94.015625 -5.40625 C 90.859375 -1.351562 85.222656 0.898438 77.109375 1.359375 C 68.992188 1.359375 61.945312 0.90625 55.96875 0 C 50 -0.90625 43.40625 -3.78125 36.1875 -8.625 C 28.96875 -13.46875 23.894531 -21.414062 20.96875 -32.46875 C 17.8125 -43.0625 15.894531 -54.898438 15.21875 -67.984375 Z M 15.21875 -67.984375 "/></g></g><g style="fill:rgb(100%,100%,100%);fill-opacity:1;"><g transform="translate(1196.35763, 516.300052)"><path style="stroke:none;" d="M 21.640625 -125.46875 L 20.625 -129.875 C 20.625 -130.09375 20.679688 -131.046875 20.796875 -132.734375 C 20.910156 -134.429688 20.742188 -136.519531 20.296875 -139 C 20.296875 -144.632812 20.179688 -148.804688 19.953125 -151.515625 C 19.273438 -152.421875 18.9375 -156.816406 18.9375 -164.703125 C 18.257812 -172.597656 18.375 -180.148438 19.28125 -187.359375 C 19.28125 -189.617188 20.519531 -195.597656 23 -205.296875 C 25.476562 -210.253906 26.71875 -213.070312 26.71875 -213.75 C 27.84375 -216 30.097656 -218.703125 33.484375 -221.859375 L 40.25 -225.25 C 43.625 -226.59375 49.484375 -226.253906 57.828125 -224.234375 L 65.265625 -222.53125 C 65.265625 -218.695312 64.816406 -213.851562 63.921875 -208 C 63.691406 -201.6875 62.789062 -192.78125 61.21875 -181.28125 C 58.0625 -158.28125 56.484375 -133.363281 56.484375 -106.53125 L 57.828125 -101.125 C 64.367188 -106.082031 70.285156 -111.15625 75.578125 -116.34375 C 80.878906 -121.53125 84.320312 -124.570312 85.90625 -125.46875 C 86.125 -125.695312 88.71875 -127.84375 93.6875 -131.90625 C 99.539062 -136.632812 102.804688 -139.5625 103.484375 -140.6875 C 107.773438 -146.320312 112.960938 -150.609375 119.046875 -153.546875 C 123.109375 -153.546875 126.71875 -152.53125 129.875 -150.5 C 133.476562 -147.34375 135.28125 -144.632812 135.28125 -142.375 C 135.28125 -140.125 135 -138.378906 134.4375 -137.140625 C 133.875 -135.898438 132.914062 -134.378906 131.5625 -132.578125 C 130.207031 -130.773438 128.96875 -128.742188 127.84375 -126.484375 C 124.90625 -121.296875 118.816406 -114.082031 109.578125 -104.84375 C 103.265625 -98.082031 98.414062 -93.234375 95.03125 -90.296875 C 93 -88.046875 88.039062 -84.328125 80.15625 -79.140625 C 80.382812 -78.691406 80.890625 -77.847656 81.671875 -76.609375 C 82.460938 -75.367188 83.3125 -73.84375 84.21875 -72.03125 C 93.6875 -61.664062 101.800781 -54.675781 108.5625 -51.0625 C 111.269531 -48.363281 114.085938 -46.675781 117.015625 -46 C 117.015625 -45.769531 118.253906 -44.867188 120.734375 -43.296875 L 122.765625 -42.609375 C 127.722656 -40.128906 130.992188 -38.890625 132.578125 -38.890625 C 139.785156 -37.535156 143.390625 -35.109375 143.390625 -31.609375 C 143.390625 -28.117188 141.585938 -25.472656 137.984375 -23.671875 C 137.984375 -23.222656 134.601562 -20.96875 127.84375 -16.90625 C 126.9375 -17.132812 125.019531 -16.457031 122.09375 -14.875 C 113.75 -12.175781 104.164062 -13.304688 93.34375 -18.265625 C 87.257812 -20.972656 82.1875 -25.253906 78.125 -31.109375 L 70.34375 -37.203125 C 70.125 -37.878906 66.289062 -42.160156 58.84375 -50.046875 L 60.203125 -39.5625 L 61.890625 -29.421875 C 61.890625 -22.203125 62.335938 -16.453125 63.234375 -12.171875 C 64.140625 -7.890625 63.296875 -4.847656 60.703125 -3.046875 C 58.109375 -1.242188 53.484375 -0.226562 46.828125 0 C 40.179688 0.226562 35.171875 -1.347656 31.796875 -4.734375 C 30.890625 -5.410156 30.039062 -8.285156 29.25 -13.359375 C 28.46875 -18.429688 27.738281 -21.984375 27.0625 -24.015625 C 22.550781 -37.765625 20.742188 -49.601562 21.640625 -59.53125 L 21.3125 -69.671875 C 21.53125 -70.566406 21.640625 -73.160156 21.640625 -77.453125 C 23.898438 -89.847656 23.898438 -105.851562 21.640625 -125.46875 Z M 21.640625 -125.46875 "/></g></g></g></svg>